<svg width="100" height="108" viewBox="0 0 100 108" fill="none" xmlns="http://www.w3.org/2000/svg">
<path d="M100.613 93.3729L80.7493 72.3445C79.8527 71.3954 78.6374 70.8681 77.3623 70.8681H74.1148C79.6136 63.4227 82.8811 54.058 82.8811 43.8707C82.8811 19.6364 64.3324 0 41.4405 0C18.5486 0 0 19.6364 0 43.8707C0 68.1051 18.5486 87.7414 41.4405 87.7414C51.0635 87.7414 59.9095 84.2824 66.9424 78.4611V81.899C66.9424 83.2489 67.4405 84.5355 68.337 85.4846L88.2006 106.513C90.0734 108.496 93.1017 108.496 94.9546 106.513L100.593 100.544C102.466 98.5615 102.466 95.3555 100.613 93.3729ZM41.4405 70.8681C27.3547 70.8681 15.9387 58.8036 15.9387 43.8707C15.9387 28.9589 27.3348 16.8734 41.4405 16.8734C55.5263 16.8734 66.9424 28.9378 66.9424 43.8707C66.9424 58.7825 55.5463 70.8681 41.4405 70.8681Z" fill="#A6A6AA"/>
</svg>
