<svg width="24" height="25" viewBox="0 0 24 25" fill="none" xmlns="http://www.w3.org/2000/svg">
<path d="M23.8819 12.1179C23.8819 18.806 18.587 24.2276 12.0555 24.2276C5.52387 24.2276 0.229004 18.806 0.229004 12.1179C0.229004 5.42987 5.52387 0.00817871 12.0555 0.00817871C18.587 0.00817871 23.8819 5.42987 23.8819 12.1179ZM17.1269 10.3928C17.3624 8.78144 16.1641 7.9152 14.5256 7.33735L15.0571 5.15457L13.7594 4.82346L13.242 6.94872C12.9008 6.86165 12.5504 6.77957 12.2022 6.69822L12.7234 4.559L11.4264 4.22788L10.8946 6.40988C10.6121 6.34401 10.3349 6.27892 10.0659 6.21046L10.0674 6.20363L8.27766 5.74609L7.93246 7.16518C7.93246 7.16518 8.89531 7.39111 8.87499 7.40508C9.4006 7.53941 9.4956 7.89552 9.47967 8.17781L8.87423 10.6645C8.91047 10.6739 8.9574 10.6875 9.00914 10.7087C8.96589 10.6978 8.91968 10.6856 8.87199 10.6739L8.02335 14.1573C7.95902 14.3208 7.79602 14.566 7.42864 14.473C7.44156 14.4923 6.48538 14.2319 6.48538 14.2319L5.84113 15.7528L7.52993 16.1838C7.84409 16.2644 8.15201 16.3488 8.45506 16.4282L7.91801 18.636L9.21424 18.9671L9.7461 16.7828C10.0899 16.8782 10.4346 16.9698 10.7803 17.0576L10.2502 19.2316L11.548 19.5627L12.085 17.3591C14.2979 17.7879 15.9619 17.6149 16.6623 15.5658C17.2268 13.9158 16.6342 12.9641 15.47 12.3435C16.3178 12.1434 16.9566 11.5723 17.1269 10.3928ZM14.1619 14.6497C13.7608 16.2996 11.0475 15.4077 10.1678 15.184L10.8805 12.2592C11.7601 12.4839 14.581 12.929 14.1619 14.6497ZM14.5633 10.3689C14.1974 11.8698 11.939 11.1072 11.2064 10.9203L11.8525 8.26755C12.5851 8.45447 14.9443 8.80336 14.5633 10.3689Z" fill="#00941D"/>
</svg>
