<svg width="8" height="13" viewBox="0 0 8 13" fill="none" xmlns="http://www.w3.org/2000/svg">
<path d="M7.87258 5.26263C8.03334 4.02738 7.21569 3.36319 6.09852 2.92001L6.46101 1.24629L5.57628 0.992871L5.223 2.62239C4.99056 2.55521 4.75197 2.49274 4.51389 2.43027L4.86973 0.790138L3.985 0.536133L3.62251 2.20927C3.43 2.15858 3.24056 2.10908 3.05727 2.05604L3.05829 2.05073L1.83769 1.70008L1.60218 2.788C1.60218 2.788 2.25906 2.96126 2.24524 2.97187C2.60364 3.07501 2.66815 3.34787 2.6574 3.56475L2.24473 5.47126C2.2693 5.47833 2.30105 5.48894 2.33689 5.50485L2.24319 5.47833L1.66464 8.14921C1.62061 8.27415 1.5095 8.46215 1.25863 8.39084C1.26784 8.40558 0.615562 8.20638 0.615562 8.20638L0.17627 9.37209L1.32826 9.70271C1.54227 9.76459 1.75219 9.82942 1.95852 9.89012L1.59245 11.5827L2.47666 11.8361L2.83916 10.1624C3.08082 10.2372 3.31531 10.3068 3.54468 10.3728L3.18322 12.0394L4.06794 12.2929L4.43402 10.6038C5.94338 10.9327 7.07796 10.8001 7.55565 9.22888C7.94067 7.96416 7.53671 7.23397 6.7426 6.75837C7.32116 6.60515 7.75635 6.16727 7.87258 5.26263ZM5.8502 8.52639C5.5773 9.7917 3.72644 9.10748 3.12638 8.93598L3.61278 6.69355C4.21284 6.86622 6.1364 7.20745 5.8502 8.52639ZM6.12411 5.24436C5.87477 6.39534 4.33469 5.81013 3.8355 5.66692L4.27581 3.6337C4.77501 3.77691 6.38421 4.04388 6.12411 5.24436Z" fill="white"/>
</svg>
