<svg width="31" height="23" viewBox="0 0 31 23" fill="none" xmlns="http://www.w3.org/2000/svg">
<path d="M28.1175 0.0827637H20.7512C18.2167 0.0827637 16.0142 1.90458 15.4609 4.47592C14.9024 1.90458 12.7051 0.0827637 10.1706 0.0827637H2.8096C1.41327 0.0827637 0.280396 1.25901 0.280396 2.70881V16.1564C0.280396 17.6062 1.41327 18.7824 2.8096 18.7824H7.53605C12.9212 18.7824 14.5283 20.1173 15.2976 22.8856C15.3344 23.0388 15.5716 23.0388 15.6137 22.8856C16.3883 20.1173 17.9954 18.7824 23.3752 18.7824H28.1017C29.498 18.7824 30.6309 17.6062 30.6309 16.1564V2.71428C30.6309 1.26996 29.5085 0.0937055 28.1175 0.0827637ZM13.0318 14.6026C13.0318 14.7066 12.9528 14.7941 12.8474 14.7941H4.40089C4.30078 14.7941 4.21647 14.712 4.21647 14.6026V13.3498C4.21647 13.2458 4.29551 13.1583 4.40089 13.1583H12.8527C12.9528 13.1583 13.0371 13.2404 13.0371 13.3498V14.6026H13.0318ZM13.0318 11.2708C13.0318 11.3748 12.9528 11.4623 12.8474 11.4623H4.40089C4.30078 11.4623 4.21647 11.3802 4.21647 11.2708V10.018C4.21647 9.91403 4.29551 9.82649 4.40089 9.82649H12.8527C12.9528 9.82649 13.0371 9.90856 13.0371 10.018V11.2708H13.0318ZM13.0318 7.93902C13.0318 8.04297 12.9528 8.1305 12.8474 8.1305H4.40089C4.30078 8.1305 4.21647 8.04844 4.21647 7.93902V6.68618C4.21647 6.58223 4.29551 6.4947 4.40089 6.4947H12.8527C12.9528 6.4947 13.0371 6.57676 13.0371 6.68618V7.93902H13.0318ZM26.6948 14.5971C26.6948 14.7011 26.6157 14.7886 26.5104 14.7886H18.0639C17.9638 14.7886 17.8795 14.7066 17.8795 14.5971V13.3443C17.8795 13.2404 17.9585 13.1528 18.0639 13.1528H26.5156C26.6157 13.1528 26.7001 13.2349 26.7001 13.3443V14.5971H26.6948ZM26.6948 11.2653C26.6948 11.3693 26.6157 11.4568 26.5104 11.4568H18.0639C17.9638 11.4568 17.8795 11.3748 17.8795 11.2653V10.0125C17.8795 9.90856 17.9585 9.82102 18.0639 9.82102H26.5156C26.6157 9.82102 26.7001 9.90309 26.7001 10.0125V11.2653H26.6948ZM26.6948 7.93355C26.6948 8.0375 26.6157 8.12503 26.5104 8.12503H18.0639C17.9638 8.12503 17.8795 8.04297 17.8795 7.93355V6.68618C17.8795 6.58223 17.9585 6.4947 18.0639 6.4947H26.5156C26.6157 6.4947 26.7001 6.57676 26.7001 6.68618V7.93355H26.6948Z" fill="#1A0C3D"/>
</svg>
