<svg width="20" height="19" viewBox="0 0 20 19" fill="none" xmlns="http://www.w3.org/2000/svg">
<path d="M12.8318 12.6667H14.2967C14.5409 12.6667 14.785 12.35 14.785 12.0333V5.38333C14.785 5.06667 14.5409 4.75 14.2967 4.75H12.8318C12.5876 4.75 12.3434 5.06667 12.3434 5.38333V12.0333C12.3434 12.35 12.5876 12.6667 12.8318 12.6667ZM16.4941 12.6667H17.9591C18.2033 12.6667 18.4474 12.35 18.4474 12.0333V0.633334C18.4474 0.316667 18.2033 0 17.9591 0H16.4941C16.25 0 16.0058 0.316667 16.0058 0.633334V12.0333C16.0058 12.35 16.25 12.6667 16.4941 12.6667ZM5.50699 12.6667H6.97195C7.21611 12.6667 7.46026 12.35 7.46026 12.0333V8.55C7.46026 8.23333 7.21611 7.91667 6.97195 7.91667H5.50699C5.26284 7.91667 5.01868 8.23333 5.01868 8.55V12.0333C5.01868 12.35 5.26284 12.6667 5.50699 12.6667ZM9.16938 12.6667H10.6343C10.8785 12.6667 11.1226 12.35 11.1226 12.0333V2.21667C11.1226 1.9 10.8785 1.58333 10.6343 1.58333H9.16938C8.92522 1.58333 8.68106 1.9 8.68106 2.21667V12.0333C8.68106 12.35 8.92522 12.6667 9.16938 12.6667ZM19.0578 15.8333H2.57709V0.791667C2.57709 0.354271 2.30393 0 1.96669 0H0.745895C0.408651 0 0.135498 0.354271 0.135498 0.791667V17.4167C0.135498 18.291 0.682185 19 1.35629 19H19.0578C19.3951 19 19.6682 18.6457 19.6682 18.2083V16.625C19.6682 16.1876 19.3951 15.8333 19.0578 15.8333Z" fill="#666666"/>
</svg>
