<svg width="33" height="23" viewBox="0 0 33 23" fill="none" xmlns="http://www.w3.org/2000/svg">
<path d="M27.5838 5.11091C23.26 2.92711 17.5131 2.43003 12.739 3.08865C7.39794 -0.849323 1.41273 0.96199 0.245361 1.4827C0.245361 1.4827 4.35278 4.15069 3.68563 6.48744C-1.17717 10.2768 1.13452 14.4957 3.68563 16.4879C4.35278 18.8246 0.245361 21.4926 0.245361 21.4926C1.40149 22.0151 7.3704 23.8208 12.739 19.903C17.5024 20.5573 23.2493 20.0646 27.5838 17.8769C34.2867 14.6057 34.3086 8.39886 27.5838 5.11048V5.11091ZM16.7796 17.8558C15.108 17.8595 13.443 17.6953 11.8274 17.3673L10.7162 18.1875C10.099 18.6451 9.40795 19.0405 8.65973 19.3643C7.75194 19.7136 6.76577 19.9284 5.7534 19.9971C5.8096 19.9206 5.85906 19.8442 5.90908 19.772C7.02081 18.1967 7.32056 16.7833 6.80835 15.532C4.98002 14.4317 3.88572 13.0255 3.88572 11.4879C3.88572 7.96493 9.66017 5.11091 16.7796 5.11091C23.899 5.11091 29.6734 7.96493 29.6734 11.4879C29.6734 15.0108 23.899 17.8558 16.7796 17.8558ZM10.5937 13.0045C10.0833 13.01 9.59078 12.8606 9.22415 12.5891C8.85753 12.3175 8.64668 11.9459 8.63781 11.5558C8.59846 9.60568 12.4502 9.56315 12.4889 11.5089V11.5308C12.4913 11.7228 12.4442 11.9133 12.3502 12.0913C12.2562 12.2693 12.1172 12.4314 11.9412 12.5684C11.7652 12.7053 11.5556 12.8144 11.3243 12.8894C11.0931 12.9644 10.8449 13.0038 10.5937 13.0053V13.0045ZM14.7399 11.5558C14.6955 9.60568 18.5472 9.55885 18.5916 11.5046V11.5308C18.6135 13.4676 14.7843 13.4887 14.7399 11.5558ZM22.7985 13.0045C22.288 13.01 21.7955 12.8606 21.4287 12.5891C21.062 12.3175 20.8511 11.946 20.842 11.5558C20.8033 9.60568 24.6549 9.56315 24.6937 11.5089V11.5308C24.6969 11.723 24.6503 11.9137 24.5566 12.092C24.4629 12.2703 24.324 12.4327 24.1478 12.5698C23.9716 12.7068 23.7617 12.8159 23.5301 12.8907C23.2985 12.9654 23.0499 13.0044 22.7985 13.0053V13.0045Z" fill="#1A0C3D"/>
</svg>
