<svg width="25" height="21" viewBox="0 0 25 21" fill="none" xmlns="http://www.w3.org/2000/svg">
<path d="M22.9167 0.777771H2.08333C0.93316 0.777771 0 1.71093 0 2.8611V18.1389C0 19.2891 0.93316 20.2222 2.08333 20.2222H22.9167C24.0668 20.2222 25 19.2891 25 18.1389V2.8611C25 1.71093 24.0668 0.777771 22.9167 0.777771ZM7.63889 4.94444C9.17101 4.94444 10.4167 6.1901 10.4167 7.72221C10.4167 9.25433 9.17101 10.5 7.63889 10.5C6.10677 10.5 4.86111 9.25433 4.86111 7.72221C4.86111 6.1901 6.10677 4.94444 7.63889 4.94444ZM12.5 15.2222C12.5 15.6823 12.066 16.0555 11.5278 16.0555H3.75C3.21181 16.0555 2.77778 15.6823 2.77778 15.2222V14.3889C2.77778 13.0087 4.0842 11.8889 5.69444 11.8889H5.91146C6.44531 12.1102 7.02691 12.2361 7.63889 12.2361C8.25087 12.2361 8.83681 12.1102 9.36632 11.8889H9.58333C11.1936 11.8889 12.5 13.0087 12.5 14.3889V15.2222ZM22.2222 12.9305C22.2222 13.1215 22.066 13.2778 21.875 13.2778H15.625C15.434 13.2778 15.2778 13.1215 15.2778 12.9305V12.2361C15.2778 12.0451 15.434 11.8889 15.625 11.8889H21.875C22.066 11.8889 22.2222 12.0451 22.2222 12.2361V12.9305ZM22.2222 10.1528C22.2222 10.3437 22.066 10.5 21.875 10.5H15.625C15.434 10.5 15.2778 10.3437 15.2778 10.1528V9.45833C15.2778 9.26735 15.434 9.1111 15.625 9.1111H21.875C22.066 9.1111 22.2222 9.26735 22.2222 9.45833V10.1528ZM22.2222 7.37499C22.2222 7.56596 22.066 7.72221 21.875 7.72221H15.625C15.434 7.72221 15.2778 7.56596 15.2778 7.37499V6.68055C15.2778 6.48958 15.434 6.33333 15.625 6.33333H21.875C22.066 6.33333 22.2222 6.48958 22.2222 6.68055V7.37499Z" fill="#200032"/>
</svg>
