<svg width="20" height="13" viewBox="0 0 25 25" fill="none" xmlns="http://www.w3.org/2000/svg">
<path d="M20.3125 2.34375V22.6562C20.3125 23.9507 19.2632 25 17.9688 25H7.03125C5.73682 25 4.6875 23.9507 4.6875 22.6562V2.34375C4.6875 1.04932 5.73682 0 7.03125 0H17.9688C19.2632 0 20.3125 1.04932 20.3125 2.34375ZM25 5.17578V5.76172C25 5.83942 24.9691 5.91394 24.9142 5.96888C24.8592 6.02382 24.7847 6.05469 24.707 6.05469H23.8281V6.34766C23.8281 6.42536 23.7973 6.49987 23.7423 6.55482C23.6874 6.60976 23.6129 6.64062 23.5352 6.64062H21.4844V4.29688H23.5352C23.6129 4.29688 23.6874 4.32774 23.7423 4.38268C23.7973 4.43763 23.8281 4.51214 23.8281 4.58984V4.88281H24.707C24.7847 4.88281 24.8592 4.91368 24.9142 4.96862C24.9691 5.02356 25 5.09808 25 5.17578ZM25 9.86328V10.4492C25 10.5269 24.9691 10.6014 24.9142 10.6564C24.8592 10.7113 24.7847 10.7422 24.707 10.7422H23.8281V11.0352C23.8281 11.1129 23.7973 11.1874 23.7423 11.2423C23.6874 11.2973 23.6129 11.3281 23.5352 11.3281H21.4844V8.98438H23.5352C23.6129 8.98438 23.6874 9.01524 23.7423 9.07018C23.7973 9.12513 23.8281 9.19964 23.8281 9.27734V9.57031H24.707C24.7847 9.57031 24.8592 9.60118 24.9142 9.65612C24.9691 9.71106 25 9.78558 25 9.86328ZM25 14.5508V15.1367C25 15.2144 24.9691 15.2889 24.9142 15.3439C24.8592 15.3988 24.7847 15.4297 24.707 15.4297H23.8281V15.7227C23.8281 15.8004 23.7973 15.8749 23.7423 15.9298C23.6874 15.9848 23.6129 16.0156 23.5352 16.0156H21.4844V13.6719H23.5352C23.6129 13.6719 23.6874 13.7027 23.7423 13.7577C23.7973 13.8126 23.8281 13.8871 23.8281 13.9648V14.2578H24.707C24.7847 14.2578 24.8592 14.2887 24.9142 14.3436C24.9691 14.3986 25 14.4731 25 14.5508ZM25 19.2383V19.8242C25 19.9019 24.9691 19.9764 24.9142 20.0314C24.8592 20.0863 24.7847 20.1172 24.707 20.1172H23.8281V20.4102C23.8281 20.4879 23.7973 20.5624 23.7423 20.6173C23.6874 20.6723 23.6129 20.7031 23.5352 20.7031H21.4844V18.3594H23.5352C23.6129 18.3594 23.6874 18.3902 23.7423 18.4452C23.7973 18.5001 23.8281 18.5746 23.8281 18.6523V18.9453H24.707C24.7847 18.9453 24.8592 18.9762 24.9142 19.0311C24.9691 19.0861 25 19.1606 25 19.2383ZM1.46484 18.3594H3.51562V20.7031H1.46484C1.38714 20.7031 1.31263 20.6723 1.25768 20.6173C1.20274 20.5624 1.17188 20.4879 1.17188 20.4102V20.1172H0.292969C0.215269 20.1172 0.140751 20.0863 0.0858086 20.0314C0.0308663 19.9764 0 19.9019 0 19.8242L0 19.2383C0 19.1606 0.0308663 19.0861 0.0858086 19.0311C0.140751 18.9762 0.215269 18.9453 0.292969 18.9453H1.17188V18.6523C1.17188 18.5746 1.20274 18.5001 1.25768 18.4452C1.31263 18.3902 1.38714 18.3594 1.46484 18.3594ZM1.46484 13.6719H3.51562V16.0156H1.46484C1.38714 16.0156 1.31263 15.9848 1.25768 15.9298C1.20274 15.8749 1.17188 15.8004 1.17188 15.7227V15.4297H0.292969C0.215269 15.4297 0.140751 15.3988 0.0858086 15.3439C0.0308663 15.2889 0 15.2144 0 15.1367L0 14.5508C0 14.4731 0.0308663 14.3986 0.0858086 14.3436C0.140751 14.2887 0.215269 14.2578 0.292969 14.2578H1.17188V13.9648C1.17188 13.8871 1.20274 13.8126 1.25768 13.7577C1.31263 13.7027 1.38714 13.6719 1.46484 13.6719ZM1.46484 8.98438H3.51562V11.3281H1.46484C1.38714 11.3281 1.31263 11.2973 1.25768 11.2423C1.20274 11.1874 1.17188 11.1129 1.17188 11.0352V10.7422H0.292969C0.215269 10.7422 0.140751 10.7113 0.0858086 10.6564C0.0308663 10.6014 0 10.5269 0 10.4492L0 9.86328C0 9.78558 0.0308663 9.71106 0.0858086 9.65612C0.140751 9.60118 0.215269 9.57031 0.292969 9.57031H1.17188V9.27734C1.17188 9.19964 1.20274 9.12513 1.25768 9.07018C1.31263 9.01524 1.38714 8.98438 1.46484 8.98438ZM1.46484 4.29688H3.51562V6.64062H1.46484C1.38714 6.64062 1.31263 6.60976 1.25768 6.55482C1.20274 6.49987 1.17188 6.42536 1.17188 6.34766V6.05469H0.292969C0.215269 6.05469 0.140751 6.02382 0.0858086 5.96888C0.0308663 5.91394 0 5.83942 0 5.76172L0 5.17578C0 5.09808 0.0308663 5.02356 0.0858086 4.96862C0.140751 4.91368 0.215269 4.88281 0.292969 4.88281H1.17188V4.58984C1.17188 4.51214 1.20274 4.43763 1.25768 4.38268C1.31263 4.32774 1.38714 4.29688 1.46484 4.29688Z" fill="#1A0C3D"/>
</svg>
