<svg width="16" height="14" viewBox="0 0 17 17" fill="none" xmlns="http://www.w3.org/2000/svg">
<path d="M8.53743 16.3305C13.0073 16.3305 16.6309 12.7893 16.6309 8.42102C16.6309 4.05273 13.0073 0.511536 8.53743 0.511536C4.06753 0.511536 0.44397 4.05273 0.44397 8.42102C0.44397 12.7893 4.06753 16.3305 8.53743 16.3305Z" fill="#C3A634"/>
<path fill-rule="evenodd" clip-rule="evenodd" d="M7.1454 7.73381H9.32759V8.86387H7.1454V11.2456H8.52179C9.06658 11.2456 9.51223 11.1739 9.85923 11.0296C10.2062 10.8857 10.4784 10.6865 10.6762 10.4314C10.8785 10.1662 11.0162 9.85931 11.0788 9.5342C11.1519 9.16747 11.1875 8.79455 11.185 8.42094C11.1875 8.04733 11.1519 7.67441 11.0788 7.30768C11.0162 6.98255 10.8785 6.67568 10.6762 6.41045C10.4784 6.15537 10.2057 5.95615 9.85923 5.8123C9.51223 5.66795 9.06658 5.59627 8.52179 5.59627H7.1454V7.7343V7.73381ZM5.74624 8.86387H4.99658V7.7343H5.74624V4.4662H9.05899C9.67106 4.4662 10.2007 4.57001 10.6483 4.77615C11.096 4.98328 11.4612 5.26555 11.745 5.62395C12.0283 5.98185 12.2392 6.40106 12.3773 6.88106C12.5154 7.36107 12.5842 7.87469 12.5842 8.42094C12.5877 8.9411 12.5179 9.45925 12.3768 9.96082C12.2392 10.4403 12.0283 10.86 11.7445 11.2179C11.4612 11.5763 11.096 11.8586 10.6483 12.0657C10.2007 12.2724 9.67055 12.3757 9.05899 12.3757H5.74624V8.86387Z" fill="white"/>
</svg>
