<svg width="13" height="16" viewBox="0 0 13 16" fill="none" xmlns="http://www.w3.org/2000/svg">
<path d="M8.93495 7.29375L4.32146 6.30625C3.78749 6.19375 3.41584 5.82812 3.41584 5.42188C3.41584 4.9125 3.97972 4.5 4.67601 4.5H7.50818C8.02934 4.5 8.54195 4.61563 8.96912 4.82812C9.2297 4.95625 9.57998 4.925 9.80211 4.76562L11.2887 3.70313C11.592 3.4875 11.5493 3.12813 11.2118 2.9375C10.1652 2.3375 8.85806 2.00313 7.51673 2V0.5C7.51673 0.225 7.20916 0 6.83324 0H5.46628C5.09037 0 4.7828 0.225 4.7828 0.5V2H4.67601C1.95491 2 -0.232231 3.70938 0.0198025 5.7375C0.199216 7.17813 1.70287 8.35 3.59953 8.75625L7.97807 9.69375C8.51204 9.80938 8.88369 10.1719 8.88369 10.5781C8.88369 11.0875 8.31981 11.5 7.62352 11.5H4.79135C4.27019 11.5 3.75758 11.3844 3.33041 11.1719C3.06983 11.0438 2.71955 11.075 2.49742 11.2344L1.01085 12.2969C0.707554 12.5125 0.750272 12.8719 1.08774 13.0625C2.13432 13.6625 3.44147 13.9969 4.7828 14V15.5C4.7828 15.775 5.09037 16 5.46628 16H6.83324C7.20916 16 7.51673 15.775 7.51673 15.5V13.9938C9.50736 13.9656 11.3741 13.1 12.032 11.7219C12.9504 9.79688 11.4083 7.82188 8.93495 7.29375Z" fill="#59595C"/>
</svg>
