<svg width="19" height="23" viewBox="0 0 19 23" fill="none" xmlns="http://www.w3.org/2000/svg">
<path d="M11.75 0.25H2.75C1.5125 0.25 0.5 1.2625 0.5 2.5V20.5C0.5 21.7375 1.5125 22.75 2.75 22.75H16.25C17.4875 22.75 18.5 21.7375 18.5 20.5V7L11.75 0.25ZM12.875 10.375H8.375V11.5H11.75C12.3687 11.5 12.875 12.0063 12.875 12.625V16C12.875 16.6187 12.3687 17.125 11.75 17.125H10.625V18.25H8.375V17.125H6.125V14.875H10.625V13.75H7.25C6.63125 13.75 6.125 13.2437 6.125 12.625V9.25C6.125 8.63125 6.63125 8.125 7.25 8.125H8.375V7H10.625V8.125H12.875V10.375Z" fill="#666666"/>
</svg>
