<svg width="19" height="23" viewBox="0 0 19 23" fill="none" xmlns="http://www.w3.org/2000/svg">
<path d="M11.75 0.271057H2.75C1.5125 0.271057 0.5 1.28359 0.5 2.52112V20.5217C0.5 21.7592 1.5125 22.7717 2.75 22.7717H16.25C17.4875 22.7717 18.5 21.7592 18.5 20.5217V7.02126L11.75 0.271057ZM12.875 10.3964H8.375V11.5214H11.75C12.3687 11.5214 12.875 12.0277 12.875 12.6464V16.0215C12.875 16.6403 12.3687 17.1466 11.75 17.1466H10.625V18.2716H8.375V17.1466H6.125V14.8965H10.625V13.7715H7.25C6.63125 13.7715 6.125 13.2652 6.125 12.6464V9.27132C6.125 8.65256 6.63125 8.14629 7.25 8.14629H8.375V7.02126H10.625V8.14629H12.875V10.3964Z" fill="#00941D"/>
</svg>
