<svg width="16" height="14" viewBox="0 0 17 16" fill="none" xmlns="http://www.w3.org/2000/svg">
<path d="M8.53743 15.8849C13.0073 15.8849 16.6309 12.3438 16.6309 7.97546C16.6309 3.60718 13.0073 0.065979 8.53743 0.065979C4.06753 0.065979 0.44397 3.60718 0.44397 7.97546C0.44397 12.3438 4.06753 15.8849 8.53743 15.8849Z" fill="#627EEA"/>
<path d="M8.78931 2.04332V6.42814L12.5816 8.08419L8.78931 2.04332Z" fill="white" fill-opacity="0.602"/>
<path d="M8.78938 2.04332L4.99658 8.08419L8.78938 6.42814V2.04332Z" fill="white"/>
<path d="M8.78943 10.9257V13.9051L12.5842 8.77431L8.78943 10.9257Z" fill="white" fill-opacity="0.602"/>
<path d="M8.78938 13.9051V10.9252L4.99658 8.77431L8.78938 13.9051Z" fill="white"/>
<path d="M8.78943 10.2361L12.5817 8.08422L8.78943 6.42916V10.2361Z" fill="white" fill-opacity="0.2"/>
<path d="M4.99658 8.08422L8.78938 10.2361V6.42916L4.99658 8.08422Z" fill="white" fill-opacity="0.602"/>
</svg>
