<svg width="29" height="11" viewBox="0 0 23 11" fill="none" xmlns="http://www.w3.org/2000/svg">
<path d="M11.5 0C6.27273 0 1.80864 2.28067 0 5.5C1.80864 8.71933 6.27273 11 11.5 11C16.7273 11 21.1914 8.71933 23 5.5C21.1914 2.28067 16.7273 0 11.5 0ZM11.5 9.16667C8.61455 9.16667 6.27273 7.524 6.27273 5.5C6.27273 3.476 8.61455 1.83333 11.5 1.83333C14.3855 1.83333 16.7273 3.476 16.7273 5.5C16.7273 7.524 14.3855 9.16667 11.5 9.16667ZM11.5 3.3C9.76455 3.3 8.36364 4.28267 8.36364 5.5C8.36364 6.71733 9.76455 7.7 11.5 7.7C13.2355 7.7 14.6364 6.71733 14.6364 5.5C14.6364 4.28267 13.2355 3.3 11.5 3.3Z" fill="white"/>
</svg>
