<svg width="75" height="92" viewBox="0 0 75 92" fill="none" xmlns="http://www.w3.org/2000/svg">
<path d="M71.875 0H11.4583C9.73242 0 8.33333 2.56201 8.33333 5.7225V7.63H3.125C1.39909 7.63 0 10.192 0 13.3525V78.2075C0 85.5819 3.26458 91.56 7.29167 91.56H68.75C72.2018 91.56 75 86.436 75 80.115V5.7225C75 2.56201 73.6009 0 71.875 0ZM7.29167 80.115C7.0154 80.115 6.75045 79.914 6.5551 79.5563C6.35975 79.1986 6.25 78.7134 6.25 78.2075V19.075H8.33333V78.2075C8.33333 78.7134 8.22359 79.1986 8.02824 79.5563C7.83289 79.914 7.56793 80.115 7.29167 80.115ZM38.0208 76.3H18.2292C17.3663 76.3 16.6667 75.0189 16.6667 73.4387V71.5312C16.6667 69.9511 17.3663 68.67 18.2292 68.67H38.0208C38.8837 68.67 39.5833 69.9511 39.5833 71.5312V73.4387C39.5833 75.0189 38.8837 76.3 38.0208 76.3ZM65.1042 76.3H45.3125C44.4496 76.3 43.75 75.0189 43.75 73.4387V71.5312C43.75 69.9511 44.4496 68.67 45.3125 68.67H65.1042C65.9671 68.67 66.6667 69.9511 66.6667 71.5312V73.4387C66.6667 75.0189 65.9671 76.3 65.1042 76.3ZM38.0208 53.41H18.2292C17.3663 53.41 16.6667 52.1289 16.6667 50.5487V48.6412C16.6667 47.0611 17.3663 45.78 18.2292 45.78H38.0208C38.8837 45.78 39.5833 47.0611 39.5833 48.6412V50.5487C39.5833 52.1289 38.8837 53.41 38.0208 53.41ZM65.1042 53.41H45.3125C44.4496 53.41 43.75 52.1289 43.75 50.5487V48.6412C43.75 47.0611 44.4496 45.78 45.3125 45.78H65.1042C65.9671 45.78 66.6667 47.0611 66.6667 48.6412V50.5487C66.6667 52.1289 65.9671 53.41 65.1042 53.41ZM65.1042 30.52H18.2292C17.3663 30.52 16.6667 29.2389 16.6667 27.6587V18.1212C16.6667 16.5411 17.3663 15.26 18.2292 15.26H65.1042C65.9671 15.26 66.6667 16.5411 66.6667 18.1212V27.6587C66.6667 29.2389 65.9671 30.52 65.1042 30.52Z" fill="#666666" fill-opacity="0.09"/>
</svg>
