<svg width="22" height="23" viewBox="0 0 22 23" fill="none" xmlns="http://www.w3.org/2000/svg">
<path d="M21.3445 12.9375H11.7482L18.1391 20.0366C18.3834 20.3079 18.7854 20.3299 19.0365 20.0671C20.6016 18.4292 21.6781 16.2213 21.9939 13.7393C22.0481 13.3144 21.7307 12.9375 21.3445 12.9375ZM20.7043 10.0265C20.3711 4.66007 16.5105 0.371785 11.6795 0.0016244C11.3106 -0.0266767 11.0001 0.318776 11.0001 0.729367V10.7812H20.0495C20.4192 10.7812 20.7298 10.4362 20.7043 10.0265ZM9.05888 12.9375V2.27784C9.05888 1.84883 8.71958 1.49619 8.33741 1.55639C3.51805 2.31288 -0.16572 6.98975 0.00575013 12.5947C0.182073 18.3511 4.64393 23.0715 9.82847 22.9992C11.8667 22.9709 13.75 22.2413 15.2985 21.0212C15.618 20.7697 15.639 20.2472 15.362 19.9395L9.05888 12.9375Z" fill="#00941D"/>
</svg>
