<svg width="20" height="17" viewBox="0 0 20 17" fill="none" xmlns="http://www.w3.org/2000/svg">
<path d="M10 9.5625C13.1055 9.5625 15.625 7.4209 15.625 4.78125C15.625 2.1416 13.1055 0 10 0C6.89453 0 4.375 2.1416 4.375 4.78125C4.375 7.4209 6.89453 9.5625 10 9.5625ZM15 10.625H12.8477C11.9805 10.9637 11.0156 11.1562 10 11.1562C8.98438 11.1562 8.02344 10.9637 7.15234 10.625H5C2.23828 10.625 0 12.5275 0 14.875V15.4062C0 16.2861 0.839844 17 1.875 17H18.125C19.1602 17 20 16.2861 20 15.4062V14.875C20 12.5275 17.7617 10.625 15 10.625Z" fill="#F1F2F9"/>
</svg>
