<svg width="45" height="26" viewBox="0 0 29 26" fill="none" xmlns="http://www.w3.org/2000/svg">
<path d="M14.6 14.41C18.9476 14.41 22.475 11.3261 22.475 7.52501C22.475 3.72392 18.9476 0.640015 14.6 0.640015C10.2523 0.640015 6.72498 3.72392 6.72498 7.52501C6.72498 11.3261 10.2523 14.41 14.6 14.41ZM21.6 15.94H18.5867C17.3726 16.4277 16.0219 16.705 14.6 16.705C13.1781 16.705 11.8328 16.4277 10.6133 15.94H7.59998C3.73357 15.94 0.599976 18.6797 0.599976 22.06V22.825C0.599976 24.092 1.77576 25.12 3.22498 25.12H25.975C27.4242 25.12 28.6 24.092 28.6 22.825V22.06C28.6 18.6797 25.4664 15.94 21.6 15.94Z" fill="#200032"/>
</svg>
