<svg width="24" height="25" viewBox="0 0 24 25" fill="none" xmlns="http://www.w3.org/2000/svg">
<path d="M23.8819 12.1094C23.8819 18.7972 18.587 24.2188 12.0555 24.2188C5.52387 24.2188 0.229004 18.7972 0.229004 12.1094C0.229004 5.42153 5.52387 0 12.0555 0C18.587 0 23.8819 5.42153 23.8819 12.1094ZM17.1269 10.3843C17.3624 8.773 16.1641 7.90679 14.5256 7.32896L15.0571 5.14624L13.7594 4.81514L13.242 6.94033C12.9008 6.85327 12.5504 6.77119 12.2022 6.68984L12.7234 4.55068L11.4264 4.21958L10.8946 6.40151C10.6121 6.33564 10.3349 6.27056 10.0659 6.2021L10.0674 6.19526L8.27766 5.73774L7.93246 7.15679C7.93246 7.15679 8.89531 7.38271 8.87499 7.39668C9.4006 7.53101 9.4956 7.88711 9.47967 8.16938L8.87423 10.656C8.91047 10.6654 8.9574 10.6791 9.00914 10.7002C8.96589 10.6893 8.91968 10.6771 8.87199 10.6654L8.02335 14.1487C7.95902 14.3122 7.79602 14.5574 7.42864 14.4644C7.44156 14.4836 6.48538 14.2233 6.48538 14.2233L5.84113 15.7441L7.52993 16.1751C7.84409 16.2558 8.15201 16.3401 8.45506 16.4196L7.91801 18.6272L9.21424 18.9583L9.7461 16.7741C10.0899 16.8695 10.4346 16.9611 10.7803 17.0489L10.2502 19.2229L11.548 19.554L12.085 17.3504C14.2979 17.7792 15.9619 17.6062 16.6623 15.5571C17.2268 13.9072 16.6342 12.9555 15.47 12.3349C16.3178 12.1348 16.9566 11.5638 17.1269 10.3843ZM14.1619 14.6411C13.7608 16.291 11.0475 15.399 10.1678 15.1754L10.8805 12.2506C11.7601 12.4754 14.581 12.9204 14.1619 14.6411ZM14.5633 10.3604C14.1974 11.8612 11.939 11.0987 11.2064 10.9118L11.8525 8.25913C12.5851 8.44604 14.9443 8.79492 14.5633 10.3604Z" fill="#666666"/>
</svg>
