<svg width="25" height="26" viewBox="0 0 25 26" fill="none" xmlns="http://www.w3.org/2000/svg">
<path d="M24.375 10.5625H21.875V7.3125C21.875 6.86562 21.5938 6.5 21.25 6.5H20C19.6562 6.5 19.375 6.86562 19.375 7.3125V10.5625H16.875C16.5312 10.5625 16.25 10.9281 16.25 11.375V13C16.25 13.4469 16.5312 13.8125 16.875 13.8125H19.375V17.0625C19.375 17.5094 19.6562 17.875 20 17.875H21.25C21.5938 17.875 21.875 17.5094 21.875 17.0625V13.8125H24.375C24.7188 13.8125 25 13.4469 25 13V11.375C25 10.9281 24.7188 10.5625 24.375 10.5625ZM8.75 13C11.5117 13 13.75 10.0902 13.75 6.5C13.75 2.90977 11.5117 0 8.75 0C5.98828 0 3.75 2.90977 3.75 6.5C3.75 10.0902 5.98828 13 8.75 13ZM12.25 14.625H11.5977C10.7305 15.143 9.76562 15.4375 8.75 15.4375C7.73438 15.4375 6.77344 15.143 5.90234 14.625H5.25C2.35156 14.625 0 17.682 0 21.45V23.5625C0 24.9082 0.839844 26 1.875 26H15.625C16.6602 26 17.5 24.9082 17.5 23.5625V21.45C17.5 17.682 15.1484 14.625 12.25 14.625Z" fill="#200032"/>
</svg>
