<svg width="19" height="20" viewBox="0 0 19 20" fill="none" xmlns="http://www.w3.org/2000/svg">
<path d="M9.40392 4.87225C6.82016 4.87225 4.73608 7.16166 4.73608 10C4.73608 12.8383 6.82016 15.1277 9.40392 15.1277C11.9877 15.1277 14.0718 12.8383 14.0718 10C14.0718 7.16166 11.9877 4.87225 9.40392 4.87225ZM9.40392 13.3337C7.73423 13.3337 6.36922 11.8387 6.36922 10C6.36922 8.16133 7.73016 6.6663 9.40392 6.6663C11.0777 6.6663 12.4386 8.16133 12.4386 10C12.4386 11.8387 11.0736 13.3337 9.40392 13.3337ZM15.3515 4.6625C15.3515 5.32746 14.864 5.85853 14.2627 5.85853C13.6574 5.85853 13.174 5.32299 13.174 4.6625C13.174 4.00201 13.6615 3.46647 14.2627 3.46647C14.864 3.46647 15.3515 4.00201 15.3515 4.6625ZM18.4431 5.87638C18.374 4.27424 18.0409 2.85507 16.9724 1.68582C15.908 0.516568 14.6161 0.150619 13.1577 0.070289C11.6546 -0.0234297 7.14922 -0.0234297 5.64609 0.070289C4.1917 0.146156 2.89982 0.512105 1.83137 1.68136C0.762928 2.85061 0.433863 4.26978 0.360738 5.87192C0.275425 7.52315 0.275425 12.4724 0.360738 14.1236C0.429801 15.7258 0.762928 17.1449 1.83137 18.3142C2.89982 19.4834 4.18764 19.8494 5.64609 19.9297C7.14922 20.0234 11.6546 20.0234 13.1577 19.9297C14.6161 19.8538 15.908 19.4879 16.9724 18.3142C18.0368 17.1449 18.3699 15.7258 18.4431 14.1236C18.5284 12.4724 18.5284 7.52761 18.4431 5.87638ZM16.5012 15.8953C16.1843 16.7701 15.5708 17.4439 14.7705 17.7965C13.5721 18.3186 10.7283 18.1981 9.40392 18.1981C8.07954 18.1981 5.23171 18.3142 4.03733 17.7965C3.24107 17.4484 2.62763 16.7745 2.30669 15.8953C1.83137 14.5788 1.94106 11.4549 1.94106 10C1.94106 8.54513 1.83544 5.41671 2.30669 4.10465C2.62357 3.22995 3.23701 2.55606 4.03733 2.2035C5.23577 1.68136 8.07954 1.80185 9.40392 1.80185C10.7283 1.80185 13.5761 1.68582 14.7705 2.2035C15.5668 2.5516 16.1802 3.22548 16.5012 4.10465C16.9765 5.42118 16.8668 8.54513 16.8668 10C16.8668 11.4549 16.9765 14.5833 16.5012 15.8953Z" fill="#59595C"/>
</svg>
