<svg width="22" height="8" viewBox="0 0 22 8" fill="none" xmlns="http://www.w3.org/2000/svg">
<path d="M2.12723 2.74L1.28723 1.19H1.25723V7H0.437227V0.0199999H1.40723L3.95723 4.28L4.79723 5.83H4.82723V0.0199999H5.64723V7H4.67723L2.12723 2.74ZM10.2675 7.12C9.91421 7.12 9.59421 7.05667 9.30754 6.93C9.02754 6.80333 8.78421 6.62333 8.57754 6.39C8.37754 6.15 8.22087 5.86667 8.10754 5.54C8.00087 5.20667 7.94754 4.83333 7.94754 4.42C7.94754 4.01333 8.00087 3.64333 8.10754 3.31C8.22087 2.97667 8.37754 2.69333 8.57754 2.46C8.78421 2.22 9.02754 2.03667 9.30754 1.91C9.59421 1.78333 9.91421 1.72 10.2675 1.72C10.6142 1.72 10.9242 1.78333 11.1975 1.91C11.4709 2.03667 11.7042 2.21333 11.8975 2.44C12.0909 2.66 12.2375 2.92333 12.3375 3.23C12.4442 3.53667 12.4975 3.87333 12.4975 4.24V4.62H8.78754V4.86C8.78754 5.08 8.82087 5.28667 8.88754 5.48C8.96087 5.66667 9.06087 5.83 9.18754 5.97C9.32087 6.11 9.48087 6.22 9.66754 6.3C9.86087 6.38 10.0775 6.42 10.3175 6.42C10.6442 6.42 10.9275 6.34333 11.1675 6.19C11.4142 6.03667 11.6042 5.81667 11.7375 5.53L12.3075 5.94C12.1409 6.29333 11.8809 6.58 11.5275 6.8C11.1742 7.01333 10.7542 7.12 10.2675 7.12ZM10.2675 2.39C10.0475 2.39 9.84754 2.43 9.66754 2.51C9.48754 2.58333 9.33087 2.69 9.19754 2.83C9.07087 2.97 8.97087 3.13667 8.89754 3.33C8.82421 3.51667 8.78754 3.72333 8.78754 3.95V4.02H11.6375V3.91C11.6375 3.45 11.5109 3.08333 11.2575 2.81C11.0109 2.53 10.6809 2.39 10.2675 2.39ZM14.127 1.84H14.907L15.457 4.07L16.007 6.33H16.027L16.657 4.07L17.307 1.84H18.017L18.687 4.07L19.327 6.33H19.347L19.877 4.07L20.437 1.84H21.187L19.817 7H18.827L18.107 4.52L17.657 2.95H17.637L17.197 4.52L16.477 7H15.507L14.127 1.84Z" fill="white"/>
</svg>
