<svg width="16" height="14" viewBox="0 0 17 17" fill="none" xmlns="http://www.w3.org/2000/svg">
<path d="M8.53743 16.059C4.06731 16.059 0.44397 12.518 0.44397 8.14948C0.44397 3.78097 4.06731 0.23999 8.53743 0.23999C13.0075 0.23999 16.6309 3.78097 16.6309 8.14948C16.6309 12.518 13.0075 16.059 8.53743 16.059ZM12.1137 4.19473L9.80001 6.43064C9.46337 6.75536 9.00941 6.93743 8.53642 6.93743C8.06342 6.93743 7.60946 6.75536 7.27283 6.43064L4.96113 4.19473H3.49672L6.54188 7.13953C7.07385 7.65173 7.79065 7.93885 8.53743 7.93885C9.28421 7.93885 10.001 7.65173 10.533 7.13953L13.5761 4.19473H12.1142H12.1137ZM4.94343 12.3825L7.27485 10.1268C7.61148 9.80213 8.06544 9.62006 8.53844 9.62006C9.01144 9.62006 9.4654 9.80213 9.80203 10.1268L12.1314 12.3825H13.5958L10.533 9.41994C10.001 8.90774 9.28421 8.62062 8.53743 8.62062C7.79065 8.62062 7.07385 8.90774 6.54188 9.41994L3.47902 12.382H4.94343V12.3825Z" fill="black"/>
</svg>
