<svg width="12" height="11" viewBox="0 0 12 11" fill="none" xmlns="http://www.w3.org/2000/svg">
<path d="M8.6875 6.58333H8.19375L8.01875 6.43708C8.63125 5.81958 9 5.01792 9 4.14583C9 2.20125 7.18125 0.625 4.9375 0.625C2.69375 0.625 0.875 2.20125 0.875 4.14583C0.875 6.09042 2.69375 7.66667 4.9375 7.66667C5.94375 7.66667 6.86875 7.34708 7.58125 6.81625L7.75 6.96792V7.39583L10.875 10.0988L11.8063 9.29167L8.6875 6.58333ZM4.9375 6.58333C3.38125 6.58333 2.125 5.49458 2.125 4.14583C2.125 2.79708 3.38125 1.70833 4.9375 1.70833C6.49375 1.70833 7.75 2.79708 7.75 4.14583C7.75 5.49458 6.49375 6.58333 4.9375 6.58333Z" fill="#999999"/>
</svg>
