<svg width="41" height="29" viewBox="0 0 41 29" fill="none" xmlns="http://www.w3.org/2000/svg">
<path d="M38.8334 0.699951H2.83337C1.729 0.699951 0.833374 1.59558 0.833374 2.69995V26.7C0.833374 27.8043 1.729 28.7 2.83337 28.7H38.8334C39.9377 28.7 40.8334 27.8043 40.8334 26.7V2.69995C40.8334 1.59558 39.9377 0.699951 38.8334 0.699951ZM11.8334 19.1925V20.2C11.8334 20.4762 11.6096 20.7 11.3334 20.7H10.3334C10.0571 20.7 9.83337 20.4762 9.83337 20.2V19.1818C9.12775 19.1456 8.4415 18.8993 7.87275 18.4725C7.629 18.2893 7.6165 17.9243 7.83712 17.7137L8.5715 17.0131C8.74462 16.8481 9.00212 16.8406 9.20462 16.9675C9.4465 17.1187 9.72087 17.2 10.0059 17.2H11.7627C12.169 17.2 12.5002 16.83 12.5002 16.3756C12.5002 16.0037 12.2746 15.6762 11.9521 15.58L9.13962 14.7362C7.97775 14.3875 7.16587 13.2725 7.16587 12.0243C7.16587 10.4918 8.3565 9.24683 9.83275 9.20745V8.19995C9.83275 7.9237 10.0565 7.69995 10.3327 7.69995H11.3327C11.609 7.69995 11.8327 7.9237 11.8327 8.19995V9.21808C12.5384 9.25433 13.2246 9.49995 13.7934 9.92745C14.0371 10.1106 14.0496 10.4756 13.829 10.6862L13.0946 11.3868C12.9215 11.5518 12.664 11.5593 12.4615 11.4325C12.2196 11.2806 11.9452 11.2 11.6602 11.2H9.90337C9.49712 11.2 9.16587 11.57 9.16587 12.0243C9.16587 12.3962 9.3915 12.7237 9.714 12.82L12.5265 13.6637C13.6884 14.0125 14.5002 15.1275 14.5002 16.3756C14.5002 17.9087 13.3096 19.1531 11.8334 19.1925ZM26.8334 18.2C26.8334 18.4762 26.6096 18.7 26.3334 18.7H19.3334C19.0571 18.7 18.8334 18.4762 18.8334 18.2V17.2C18.8334 16.9237 19.0571 16.7 19.3334 16.7H26.3334C26.6096 16.7 26.8334 16.9237 26.8334 17.2V18.2ZM36.8334 18.2C36.8334 18.4762 36.6096 18.7 36.3334 18.7H31.3334C31.0571 18.7 30.8334 18.4762 30.8334 18.2V17.2C30.8334 16.9237 31.0571 16.7 31.3334 16.7H36.3334C36.6096 16.7 36.8334 16.9237 36.8334 17.2V18.2ZM36.8334 12.2C36.8334 12.4762 36.6096 12.7 36.3334 12.7H19.3334C19.0571 12.7 18.8334 12.4762 18.8334 12.2V11.2C18.8334 10.9237 19.0571 10.7 19.3334 10.7H36.3334C36.6096 10.7 36.8334 10.9237 36.8334 11.2V12.2Z" fill="#1A0C3D"/>
</svg>
