<svg width="19" height="19" viewBox="0 0 19 19" fill="none" xmlns="http://www.w3.org/2000/svg">
<path d="M8.625 7.02989V0.764709C4.25 1.20222 0.75 4.95608 0.75 9.51497C0.75 14.0739 4.25 17.8277 8.625 18.2652V12C7.75 11.6413 6.875 10.67 6.875 9.51497C6.875 8.35993 7.75 7.38866 8.625 7.02989ZM12.0025 8.63994H18.25C17.83 4.48357 14.75 1.17597 10.375 0.764709V7.02989C11.25 7.2924 11.705 7.88742 12.0025 8.63994ZM10.375 12V18.2652C14.75 17.854 17.83 14.5464 18.25 10.39H12.0025C11.705 11.1425 11.25 11.7375 10.375 12Z" fill="#00941D"/>
</svg>
