<svg width="18" height="16" viewBox="0 0 18 16" fill="none" xmlns="http://www.w3.org/2000/svg">
<path d="M1.125 14.705C1.125 15.3273 1.62773 15.83 2.25 15.83H7.875V10.205H1.125V14.705ZM10.125 15.83H15.75C16.3723 15.83 16.875 15.3273 16.875 14.705V10.205H10.125V15.83ZM16.875 4.57999H15.3949C15.6129 4.1546 15.75 3.6835 15.75 3.17374C15.75 1.46866 14.3613 0.0799866 12.6562 0.0799866C11.1938 0.0799866 10.248 0.828815 9.03516 2.48116C7.82227 0.828815 6.87656 0.0799866 5.41406 0.0799866C3.70898 0.0799866 2.32031 1.46866 2.32031 3.17374C2.32031 3.6835 2.45391 4.1546 2.67539 4.57999H1.125C0.502734 4.57999 0 5.08272 0 5.70499V8.51749C0 8.82686 0.253125 9.07999 0.5625 9.07999H17.4375C17.7469 9.07999 18 8.82686 18 8.51749V5.70499C18 5.08272 17.4973 4.57999 16.875 4.57999ZM5.41055 4.57999C4.63359 4.57999 4.0043 3.95069 4.0043 3.17374C4.0043 2.39678 4.63359 1.76749 5.41055 1.76749C6.11016 1.76749 6.62695 1.8835 8.4375 4.57999H5.41055ZM12.6562 4.57999H9.6293C11.4363 1.89053 11.9391 1.76749 12.6562 1.76749C13.4332 1.76749 14.0625 2.39678 14.0625 3.17374C14.0625 3.95069 13.4332 4.57999 12.6562 4.57999Z" fill="#1A0C3D"/>
</svg>
