<svg width="40" height="19" viewBox="0 0 25 19" fill="none" xmlns="http://www.w3.org/2000/svg">
<path d="M24.4141 15.75C24.7363 15.75 25 16.0137 25 16.3359V18.2891C25 18.6113 24.7363 18.875 24.4141 18.875H0.585938C0.263672 18.875 0 18.6113 0 18.2891V0.710938C0 0.388672 0.263672 0.125 0.585938 0.125H2.53906C2.86133 0.125 3.125 0.388672 3.125 0.710938V15.75H24.4141ZM18.1982 4.78809L14.0625 7.54688L9.89746 1.99512C9.64844 1.66309 9.14062 1.6875 8.92578 2.04395L4.6875 9.10938V14.1875H23.4375L19.0479 5.01758C18.8916 4.7002 18.4912 4.59277 18.1982 4.78809Z" fill="#200032"/>
</svg>
