<svg width="25" height="19" viewBox="0 0 25 19" fill="none" xmlns="http://www.w3.org/2000/svg">
<path d="M21.6526 4.73514C21.6673 4.94294 21.6673 5.15079 21.6673 5.35859C21.6673 11.6968 16.8689 19 8.0988 19C5.3969 19 2.88696 18.2132 0.775635 16.8477C1.15952 16.8922 1.5286 16.907 1.92726 16.907C4.15665 16.907 6.20894 16.15 7.8478 14.8586C5.75125 14.8141 3.99427 13.4336 3.38892 11.5336C3.68423 11.5781 3.9795 11.6078 4.28958 11.6078C4.71774 11.6078 5.14594 11.5484 5.54455 11.4445C3.35942 10.9992 1.72052 9.06952 1.72052 6.73905V6.6797C2.35537 7.03595 3.09365 7.25861 3.87611 7.28826C2.5916 6.4273 1.75006 4.95779 1.75006 3.29528C1.75006 2.40467 1.98625 1.58826 2.39968 0.875759C4.74723 3.78513 8.27595 5.6851 12.2328 5.89295C12.159 5.5367 12.1147 5.16564 12.1147 4.79454C12.1147 2.15232 14.2408 0 16.8836 0C18.2567 0 19.4969 0.578905 20.368 1.51406C21.4458 1.30626 22.4793 0.905458 23.3947 0.356253C23.0403 1.46956 22.2874 2.40472 21.2982 2.99842C22.2579 2.89457 23.188 2.62732 24.0443 2.25627C23.3948 3.20623 22.5827 4.05229 21.6526 4.73514Z" fill="#59595C"/>
</svg>
