<svg width="10" height="9" viewBox="0 0 10 9" fill="none" xmlns="http://www.w3.org/2000/svg">
<path d="M4.25176 0.602817L4.74724 0.145294C4.95704 -0.0484314 5.29628 -0.0484314 5.50385 0.145294L9.84265 4.14964C10.0524 4.34337 10.0524 4.65663 9.84265 4.84829L5.50385 8.85471C5.29405 9.04843 4.9548 9.04843 4.74724 8.85471L4.25176 8.39718C4.03973 8.2014 4.04419 7.88196 4.26068 7.69029L6.95012 5.32436L0.535654 5.32436C0.238812 5.32436 0 5.10385 0 4.82975V4.17025C0 3.89615 0.238812 3.67564 0.535654 3.67564L6.95012 3.67564L4.26068 1.30971C4.04196 1.11804 4.0375 0.798603 4.25176 0.602817Z" fill="black"/>
</svg>
