<svg width="40" height="20" viewBox="0 0 26 20" fill="none" xmlns="http://www.w3.org/2000/svg">
<path d="M23.75 0.111145H2.91671C1.76653 0.111145 0.833374 1.0443 0.833374 2.19448V17.4723C0.833374 18.6224 1.76653 19.5556 2.91671 19.5556H23.75C24.9002 19.5556 25.8334 18.6224 25.8334 17.4723V2.19448C25.8334 1.0443 24.9002 0.111145 23.75 0.111145ZM8.47226 4.27781C10.0044 4.27781 11.25 5.52347 11.25 7.05559C11.25 8.58771 10.0044 9.83337 8.47226 9.83337C6.94014 9.83337 5.69448 8.58771 5.69448 7.05559C5.69448 5.52347 6.94014 4.27781 8.47226 4.27781ZM13.3334 14.5556C13.3334 15.0157 12.8993 15.3889 12.3612 15.3889H4.58337C4.04518 15.3889 3.61115 15.0157 3.61115 14.5556V13.7223C3.61115 12.342 4.91758 11.2223 6.52782 11.2223H6.74483C7.27869 11.4436 7.86028 11.5695 8.47226 11.5695C9.08424 11.5695 9.67018 11.4436 10.1997 11.2223H10.4167C12.0269 11.2223 13.3334 12.342 13.3334 13.7223V14.5556ZM23.0556 12.2639C23.0556 12.4549 22.8993 12.6111 22.7084 12.6111H16.4584C16.2674 12.6111 16.1112 12.4549 16.1112 12.2639V11.5695C16.1112 11.3785 16.2674 11.2223 16.4584 11.2223H22.7084C22.8993 11.2223 23.0556 11.3785 23.0556 11.5695V12.2639ZM23.0556 9.48614C23.0556 9.67712 22.8993 9.83337 22.7084 9.83337H16.4584C16.2674 9.83337 16.1112 9.67712 16.1112 9.48614V8.7917C16.1112 8.60073 16.2674 8.44448 16.4584 8.44448H22.7084C22.8993 8.44448 23.0556 8.60073 23.0556 8.7917V9.48614ZM23.0556 6.70837C23.0556 6.89934 22.8993 7.05559 22.7084 7.05559H16.4584C16.2674 7.05559 16.1112 6.89934 16.1112 6.70837V6.01392C16.1112 5.82295 16.2674 5.6667 16.4584 5.6667H22.7084C22.8993 5.6667 23.0556 5.82295 23.0556 6.01392V6.70837Z" fill="#200032"/>
</svg>
